<svg width="64" height="13" viewBox="0 0 64 13" fill="none" xmlns="http://www.w3.org/2000/svg">
<path d="M6.47732 12.1817C9.62936 12.1817 12.1846 9.62704 12.1846 6.47573C12.1846 3.32442 9.62936 0.769775 6.47732 0.769775C3.32527 0.769775 0.77002 3.32442 0.77002 6.47573C0.77002 9.62704 3.32527 12.1817 6.47732 12.1817Z" fill="#FFC7F4"/>
<path d="M6.47721 12.9513C2.91224 12.9513 0 10.0398 0 6.47567C0 2.91154 2.91224 0 6.47721 0C10.0422 0 12.9544 2.91154 12.9544 6.47567C12.9544 10.0398 10.0422 12.9513 6.47721 12.9513ZM6.47721 1.5227C3.74909 1.5227 1.52307 3.74819 1.52307 6.47567C1.52307 9.20315 3.74909 11.4286 6.47721 11.4286C9.20532 11.4286 11.4313 9.20315 11.4313 6.47567C11.4313 3.74819 9.20532 1.5227 6.47721 1.5227Z" fill="#7A3FC6"/>
<path d="M31.6331 12.1817C34.7851 12.1817 37.3404 9.62704 37.3404 6.47573C37.3404 3.32442 34.7851 0.769775 31.6331 0.769775C28.481 0.769775 25.9258 3.32442 25.9258 6.47573C25.9258 9.62704 28.481 12.1817 31.6331 12.1817Z" fill="#E1D6FC"/>
<path d="M31.6329 12.9513C28.068 12.9513 25.1558 10.0398 25.1558 6.47567C25.1558 2.91154 28.068 0 31.6329 0C35.1979 0 38.1101 2.91154 38.1101 6.47567C38.1101 10.0398 35.1979 12.9513 31.6329 12.9513ZM31.6329 1.5227C28.9048 1.5227 26.6788 3.74819 26.6788 6.47567C26.6788 9.20315 28.9048 11.4286 31.6329 11.4286C34.3611 11.4286 36.5871 9.20315 36.5871 6.47567C36.5871 3.74819 34.3611 1.5227 31.6329 1.5227Z" fill="#7A3FC6"/>
<path d="M57.0393 12.1817C60.1914 12.1817 62.7466 9.62704 62.7466 6.47573C62.7466 3.32442 60.1914 0.769775 57.0393 0.769775C53.8873 0.769775 51.332 3.32442 51.332 6.47573C51.332 9.62704 53.8873 12.1817 57.0393 12.1817Z" fill="#DDFF83"/>
<path d="M57.0392 12.9513C53.4742 12.9513 50.562 10.0398 50.562 6.47567C50.562 2.91154 53.4742 0 57.0392 0C60.6042 0 63.5164 2.91154 63.5164 6.47567C63.5164 10.0398 60.6042 12.9513 57.0392 12.9513ZM57.0392 1.5227C54.3111 1.5227 52.0851 3.74819 52.0851 6.47567C52.0851 9.20315 54.3111 11.4286 57.0392 11.4286C59.7673 11.4286 61.9933 9.20315 61.9933 6.47567C61.9933 3.74819 59.7673 1.5227 57.0392 1.5227Z" fill="#7A3FC6"/>
</svg>
