<svg width="1311" height="1338" viewBox="0 0 1311 1338" fill="none" xmlns="http://www.w3.org/2000/svg">
<path d="M1188.09 108.55C1189.54 108.55 1189.54 106.3 1188.09 106.3C1186.64 106.3 1186.64 108.55 1188.09 108.55Z" fill="white" fill-opacity="0.5"/>
<path d="M1309.09 766.25C1310.54 766.25 1310.54 764 1309.09 764C1307.64 764 1307.64 766.25 1309.09 766.25Z" fill="white" fill-opacity="0.5"/>
<path d="M1156.09 1269.25C1157.54 1269.25 1157.54 1267 1156.09 1267C1154.64 1267 1154.64 1269.25 1156.09 1269.25Z" fill="white" fill-opacity="0.5"/>
<path d="M1197.09 1328.25C1198.54 1328.25 1198.54 1326 1197.09 1326C1195.64 1326 1195.64 1328.25 1197.09 1328.25Z" fill="white" fill-opacity="0.5"/>
<path d="M12.0875 1337.25C13.5375 1337.25 13.5375 1335 12.0875 1335C10.6375 1335 10.6375 1337.25 12.0875 1337.25Z" fill="white" fill-opacity="0.5"/>
<path d="M1.0875 775.25C2.5375 775.25 2.5375 773 1.0875 773C-0.3625 773 -0.3625 775.25 1.0875 775.25Z" fill="white" fill-opacity="0.5"/>
<path d="M92.0875 703.25C93.5375 703.25 93.5375 701 92.0875 701C90.6375 701 90.6375 703.25 92.0875 703.25Z" fill="white" fill-opacity="0.5"/>
<path d="M387.088 985.25C388.538 985.25 388.538 983 387.088 983C385.638 983 385.638 985.25 387.088 985.25Z" fill="white" fill-opacity="0.5"/>
<path d="M547.088 963.25C548.538 963.25 548.538 961 547.088 961C545.638 961 545.638 963.25 547.088 963.25Z" fill="white" fill-opacity="0.5"/>
<path d="M678.088 1016.25C679.538 1016.25 679.538 1014 678.088 1014C676.638 1014 676.638 1016.25 678.088 1016.25Z" fill="white" fill-opacity="0.5"/>
<path d="M911.088 966.25C912.538 966.25 912.538 964 911.088 964C909.638 964 909.638 966.25 911.088 966.25Z" fill="white" fill-opacity="0.5"/>
<path d="M1027.09 542.25C1028.54 542.25 1028.54 540 1027.09 540C1025.64 540 1025.64 542.25 1027.09 542.25Z" fill="white" fill-opacity="0.5"/>
<path d="M927.088 432.25C928.538 432.25 928.538 430 927.088 430C925.638 430 925.638 432.25 927.088 432.25Z" fill="white" fill-opacity="0.5"/>
<path d="M777.088 452.25C778.538 452.25 778.538 450 777.088 450C775.638 450 775.638 452.25 777.088 452.25Z" fill="white" fill-opacity="0.5"/>
<path d="M460.088 426.25C461.538 426.25 461.538 424 460.088 424C458.638 424 458.638 426.25 460.088 426.25Z" fill="white" fill-opacity="0.5"/>
<path d="M412.088 447.25C413.538 447.25 413.538 445 412.088 445C410.638 445 410.638 447.25 412.088 447.25Z" fill="white" fill-opacity="0.5"/>
<path d="M304.088 394.25C305.538 394.25 305.538 392 304.088 392C302.638 392 302.638 394.25 304.088 394.25Z" fill="white" fill-opacity="0.5"/>
<path d="M59.0875 644.25C60.5375 644.25 60.5375 642 59.0875 642C57.6375 642 57.6375 644.25 59.0875 644.25Z" fill="white" fill-opacity="0.5"/>
<path d="M11.0875 409.25C12.5375 409.25 12.5375 407 11.0875 407C9.6375 407 9.6375 409.25 11.0875 409.25Z" fill="white" fill-opacity="0.5"/>
<path d="M1282.09 1234.25C1283.54 1234.25 1283.54 1232 1282.09 1232C1280.64 1232 1280.64 1234.25 1282.09 1234.25Z" fill="white" fill-opacity="0.5"/>
<path d="M1248.09 178.25C1249.54 178.25 1249.54 176 1248.09 176C1246.64 176 1246.64 178.25 1248.09 178.25Z" fill="white" fill-opacity="0.5"/>
<path d="M1277.09 2.25C1278.54 2.25 1278.54 0 1277.09 0C1275.64 0 1275.64 2.25 1277.09 2.25Z" fill="white" fill-opacity="0.5"/>
</svg>
