<svg width="1261" height="801" viewBox="0 0 1261 801" fill="none" xmlns="http://www.w3.org/2000/svg">
<path d="M1057.09 11.25C1058.54 11.25 1058.54 9 1057.09 9C1055.64 9 1055.64 11.25 1057.09 11.25Z" fill="white" fill-opacity="0.5"/>
<path d="M980.088 50.25C981.538 50.25 981.538 48 980.088 48C978.638 48 978.638 50.25 980.088 50.25Z" fill="white" fill-opacity="0.5"/>
<path d="M763.088 2.25C764.538 2.25 764.538 0 763.088 0C761.638 0 761.638 2.25 763.088 2.25Z" fill="white" fill-opacity="0.5"/>
<path d="M429.088 98.25C430.538 98.25 430.538 96 429.088 96C427.638 96 427.638 98.25 429.088 98.25Z" fill="white" fill-opacity="0.5"/>
<path d="M186.088 27.25C187.538 27.25 187.538 25 186.088 25C184.638 25 184.638 27.25 186.088 27.25Z" fill="white" fill-opacity="0.5"/>
<path d="M141.088 603.25C142.538 603.25 142.538 601 141.088 601C139.638 601 139.638 603.25 141.088 603.25Z" fill="white" fill-opacity="0.5"/>
<path d="M118.088 653.25C119.538 653.25 119.538 651 118.088 651C116.638 651 116.638 653.25 118.088 653.25Z" fill="white" fill-opacity="0.5"/>
<path d="M185.088 704.25C186.538 704.25 186.538 702 185.088 702C183.638 702 183.638 704.25 185.088 704.25Z" fill="white" fill-opacity="0.5"/>
<path d="M1.0875 800.25C2.5375 800.25 2.5375 798 1.0875 798C-0.3625 798 -0.3625 800.25 1.0875 800.25Z" fill="white" fill-opacity="0.5"/>
<path d="M568.088 605.25C569.538 605.25 569.538 603 568.088 603C566.638 603 566.638 605.25 568.088 605.25Z" fill="white" fill-opacity="0.5"/>
<path d="M582.088 768.25C583.538 768.25 583.538 766 582.088 766C580.638 766 580.638 768.25 582.088 768.25Z" fill="white" fill-opacity="0.5"/>
<path d="M47.0875 386.25C48.5375 386.25 48.5375 384 47.0875 384C45.6375 384 45.6375 386.25 47.0875 386.25Z" fill="white" fill-opacity="0.5"/>
<path d="M118.088 653.25C119.538 653.25 119.538 651 118.088 651C116.638 651 116.638 653.25 118.088 653.25Z" fill="white" fill-opacity="0.5"/>
<path d="M629.088 710.25C630.538 710.25 630.538 708 629.088 708C627.638 708 627.638 710.25 629.088 710.25Z" fill="white" fill-opacity="0.5"/>
<path d="M941.088 712.25C942.538 712.25 942.538 710 941.088 710C939.638 710 939.638 712.25 941.088 712.25Z" fill="white" fill-opacity="0.5"/>
<path d="M1109.09 602.25C1110.54 602.25 1110.54 600 1109.09 600C1107.64 600 1107.64 602.25 1109.09 602.25Z" fill="white" fill-opacity="0.5"/>
<path d="M1149.09 652.25C1150.54 652.25 1150.54 650 1149.09 650C1147.64 650 1147.64 652.25 1149.09 652.25Z" fill="white" fill-opacity="0.5"/>
<path d="M1259.09 442.25C1260.54 442.25 1260.54 440 1259.09 440C1257.64 440 1257.64 442.25 1259.09 442.25Z" fill="white" fill-opacity="0.5"/>
</svg>
