<svg width="1440" height="1266" viewBox="0 0 1440 1266" fill="none" xmlns="http://www.w3.org/2000/svg">
<path d="M1452.93 144.563V297.24H-11.895V219.689C-11.5881 219.459 -11.2555 219.23 -10.9486 219C10.0272 204.22 45.8907 164.347 70.4477 166.185C98.279 168.252 160.746 264.029 199.346 262.651C221.934 261.86 236.566 246.084 259.358 245.139C284.963 244.093 308.548 277.839 343.491 284.808C383.729 292.824 457.579 190.512 507.153 191.073C540.766 191.456 594.254 267.348 638.226 267.016C665.75 266.812 682.096 246.441 702.637 246.288C731.543 246.109 741.161 287.08 771.934 278.682C811.43 267.935 833.454 225.126 863.639 196.102C888.656 172.081 915.106 175.272 936.517 197.608C960 222.089 990.287 251.776 1025.46 252.542C1064.83 253.385 1069.99 223.059 1105.58 218.591C1139.09 214.354 1172.88 253.206 1206.39 253.104C1268.06 252.951 1386.14 139.713 1440.4 141.424C1445.15 141.577 1449.27 142.7 1452.93 144.563Z" fill="#491F81"/>
<g clip-path="url(#clip0_406_29)">
<path d="M-78.052 346.978H1540.96L7490.71 1265.02H-6027.81L-78.052 346.978Z" stroke="#7E40C7" stroke-miterlimit="10"/>
<path d="M-3320.47 847.292H4783.37" stroke="#7E40C7" stroke-miterlimit="10"/>
<path d="M-2161.63 668.51H3624.63" stroke="#7E40C7" stroke-miterlimit="10"/>
<path d="M-1518.25 569.213H2981.16" stroke="#7E40C7" stroke-miterlimit="10"/>
<path d="M-1108.98 506.113H2571.89" stroke="#7E40C7" stroke-miterlimit="10"/>
<path d="M-825.706 462.335H2288.61" stroke="#7E40C7" stroke-miterlimit="10"/>
<path d="M-617.913 430.296H2080.91" stroke="#7E40C7" stroke-miterlimit="10"/>
<path d="M-459.102 405.839H1922.1" stroke="#7E40C7" stroke-miterlimit="10"/>
<path d="M-333.775 386.436H1796.68" stroke="#7E40C7" stroke-miterlimit="10"/>
<path d="M-232.271 370.783H1695.27" stroke="#7E40C7" stroke-miterlimit="10"/>
<path d="M-148.464 357.902H1611.37" stroke="#7E40C7" stroke-miterlimit="10"/>
<path d="M1439.83 346.978L6645.86 1265.02" stroke="#7E40C7" stroke-miterlimit="10"/>
<path d="M1338.62 346.978L5800.91 1265.02" stroke="#7E40C7" stroke-miterlimit="10"/>
<path d="M1237.4 346.978L4956.06 1265.02" stroke="#7E40C7" stroke-miterlimit="10"/>
<path d="M1136.28 346.978L4111.11 1265.02" stroke="#7E40C7" stroke-miterlimit="10"/>
<path d="M1035.06 346.978L3266.25 1265.02" stroke="#7E40C7" stroke-miterlimit="10"/>
<path d="M933.84 346.978L2421.3 1265.02" stroke="#7E40C7" stroke-miterlimit="10"/>
<path d="M832.623 346.978L1576.35 1265.02" stroke="#7E40C7" stroke-miterlimit="10"/>
<path d="M731.5 346.978V1265.02" stroke="#7E40C7" stroke-miterlimit="10"/>
<path d="M630.282 346.978L-113.45 1265.02" stroke="#7E40C7" stroke-miterlimit="10"/>
<path d="M529.064 346.978L-958.303 1265.02" stroke="#7E40C7" stroke-miterlimit="10"/>
<path d="M427.943 346.978L-1803.25 1265.02" stroke="#7E40C7" stroke-miterlimit="10"/>
<path d="M326.724 346.978L-2648.11 1265.02" stroke="#7E40C7" stroke-miterlimit="10"/>
<path d="M225.506 346.978L-3493.06 1265.02" stroke="#7E40C7" stroke-miterlimit="10"/>
<path d="M124.384 346.978L-4338.01 1265.02" stroke="#7E40C7" stroke-miterlimit="10"/>
<path d="M23.1658 346.978L-5182.86 1265.02" stroke="#7E40C7" stroke-miterlimit="10"/>
</g>
<path d="M295 117C295 117 239.226 169.154 218.16 225.133C184.295 315.13 183 432.603 183 432.603C183 432.603 186.486 445.259 215.969 444.996C245.451 444.732 238.565 431.131 238.565 431.131C238.565 431.131 194.563 346.049 226.993 244.495C252.467 164.747 294.991 117 294.991 117H295Z" fill="#7E40C7"/>
<path d="M268.363 138.599C268.363 138.599 184.753 119.33 140 185.042C140 185.042 175.414 81.2903 263.938 129.209C263.938 129.209 217.052 73.6722 160.054 98.3236C160.054 98.3236 254.095 24.6142 275.728 117.829C275.728 117.829 283.236 54.2177 258.42 33C258.42 33 321.036 36.0034 283.068 117.635C283.068 117.635 321.615 25.5928 384.6 80.6576C384.6 80.6576 333.33 75.9922 295.825 124.772C295.825 124.772 369.87 95.4467 403 194.466C403 194.466 320.826 134.432 291.013 135.393C291.013 135.393 351.461 157.48 296.656 245C296.656 245 302.384 157.075 268.355 138.591L268.363 138.599Z" fill="#7E40C7"/>
<path d="M1113 111C1113 111 1168.77 163.154 1189.84 219.133C1223.7 309.13 1225 426.603 1225 426.603C1225 426.603 1221.51 439.26 1192.03 438.996C1162.55 438.733 1169.43 425.131 1169.43 425.131C1169.43 425.131 1213.44 340.05 1181.01 238.495C1155.53 158.747 1113.01 111 1113.01 111H1113Z" fill="#7E40C7"/>
<path d="M1129.25 130.469C1129.25 130.469 1203.34 123.144 1234 196.5C1234 196.5 1231.81 92.9788 1135.47 122.159C1135.47 122.159 1192.55 77.1601 1243.44 112.748C1243.44 112.748 1166.1 21.6662 1126.2 108.643C1126.2 108.643 1131.61 44.8197 1160.18 29.0136C1160.18 29.0136 1098.24 19.3905 1119.05 106.98C1119.05 106.98 1099.76 9.07541 1027 50.3806C1027 50.3806 1078.17 56.0987 1105.12 111.412C1105.12 111.412 1038.47 67.8248 986.14 158.181C986.14 158.181 1078.69 115.859 1107.7 122.784C1107.7 122.784 1043.5 134 1045.5 223C1045.5 223 1092.21 141.742 1129.26 130.463L1129.25 130.469Z" fill="#7E40C7"/>
<defs>
<clipPath id="clip0_406_29">
<rect width="13519" height="920" fill="white" transform="translate(-6028 346)"/>
</clipPath>
</defs>
</svg>
