<svg width="1360" height="167" viewBox="0 0 1360 167" fill="none" xmlns="http://www.w3.org/2000/svg">
<path d="M1360 167C1358.21 148.069 1342.89 133.152 1323.93 132.148C1321.91 127.633 1319.3 123.452 1316.19 119.706C1307.09 100.876 1288 87.8648 1265.86 87.8648C1254.88 87.8648 1244.68 91.1092 1236.01 96.6279C1220.73 79.4028 1198.52 68.566 1173.84 68.566C1149.16 68.566 1127.15 79.3024 1111.86 96.3938C1098.1 79.4028 1077.15 68.566 1053.76 68.566C1032.78 68.566 1013.82 77.2622 1000.19 91.2764C988.342 77.396 970.871 68.566 951.315 68.566C941.587 68.566 932.388 70.8069 924.083 74.7202C919.682 32.711 884.541 0 841.823 0C799.105 0 764.692 32.0755 759.729 73.4492C753.342 70.3721 746.228 68.566 738.684 68.566C712.643 68.566 691.399 89.2361 690.009 115.224C686.535 114.288 682.895 113.719 679.123 113.719C669.163 113.719 660.031 117.231 652.817 123.051C640.707 109.572 623.269 101.043 603.845 101.043C593.985 101.043 584.653 103.284 576.249 107.197C564.039 68.3319 528.071 40.1362 485.551 40.1362C450.609 40.1362 420.068 59.2009 403.523 87.5972C391.611 75.824 375.298 68.566 357.33 68.566C343.962 68.566 331.554 72.6131 321.164 79.5031C311.965 48.0631 283.211 25.0851 249.129 25.0851C231.194 25.0851 214.749 31.44 201.844 42.0092C187.153 16.9241 160.086 0.0334468 129.114 0.0334468C82.4914 0.0334468 44.6704 38.2632 44.6704 85.3898C44.6704 86.4601 44.7035 87.4969 44.7366 88.5672C18.7947 96.9958 0 121.613 0 150.644C0 156.297 0.794141 161.782 2.11771 167H1360Z" fill="#7B40C6"/>
</svg>
