<svg width="1440" height="1316" viewBox="0 0 1440 1316" fill="none" xmlns="http://www.w3.org/2000/svg">
<g clip-path="url(#clip0_314_2502)">
<path opacity="0.1" d="M1338.76 514.403C1316.57 446.064 1333.5 357.215 1292.06 300.346C1250.21 242.918 1160.14 231.728 1102.63 189.912C1045.72 148.534 1007.47 66.0967 939.077 43.9144C873.12 22.5285 793.971 66.0171 720.88 66.0171C647.79 66.0171 568.721 22.5285 502.724 43.9542C434.336 66.1366 396.077 148.534 339.166 189.951C281.698 231.767 191.59 242.918 149.744 300.385C108.336 357.255 125.234 446.144 103.036 514.443C81.6745 580.313 15 641.962 15 715C15 788.039 81.6745 849.687 103.115 915.597C125.314 983.936 108.376 1072.78 149.823 1129.65C191.669 1187.08 281.738 1198.27 339.246 1240.09C396.156 1281.47 434.415 1363.9 502.804 1386.09C568.761 1407.47 647.909 1363.98 721 1363.98C794.091 1363.98 873.239 1407.47 939.196 1386.09C1007.58 1363.9 1045.84 1281.51 1102.75 1240.09C1160.22 1198.27 1250.33 1187.12 1292.18 1129.65C1333.58 1072.78 1316.69 983.896 1338.88 915.597C1360.29 849.687 1427 788.039 1427 715C1427 641.962 1360.33 580.313 1338.88 514.403H1338.76ZM1241.6 844.032C1229.37 897.915 1169.91 932.244 1143.09 977.246C1115.27 1023.92 1112.92 1092.3 1072.86 1127.3C1032.41 1162.67 964.105 1155.86 914.727 1177.09C865.827 1198.11 823.821 1252.47 769.701 1257.41C717.453 1262.19 666.401 1216.87 612.48 1204.68C558.558 1192.5 492.92 1211.33 447.886 1184.53C401.178 1156.74 386.751 1089.59 351.68 1049.57C316.29 1009.15 251.688 985.848 230.447 936.505C209.404 887.64 236.743 824.916 231.802 770.834C227.019 718.624 188.162 662.033 200.397 608.19C212.632 554.307 272.093 519.979 298.914 474.937C326.732 428.262 329.083 359.883 369.136 324.878C409.587 289.513 477.895 296.323 527.273 275.097C576.173 254.069 618.179 199.709 672.299 194.77C724.547 189.991 775.599 235.312 829.52 247.498C883.442 259.724 949.08 240.847 994.114 267.649C1040.82 295.447 1055.25 362.591 1090.32 402.615C1125.71 443.037 1190.31 466.335 1211.55 515.678C1232.6 564.542 1205.26 627.266 1210.2 681.348C1214.98 733.558 1253.84 790.149 1241.6 843.992V844.032Z" fill="white" fill-opacity="0.5"/>
</g>
<defs>
<clipPath id="clip0_314_2502">
<rect width="1860" height="1785" fill="white" transform="translate(-220 -469)"/>
</clipPath>
</defs>
</svg>
