<svg width="1440" height="1316" viewBox="0 0 1440 1316" fill="none" xmlns="http://www.w3.org/2000/svg">
<path opacity="0.1" d="M1523.92 159.024C1494.67 68.9313 1516.99 -48.1996 1462.38 -123.172C1407.26 -198.879 1288.6 -213.632 1212.84 -268.759C1137.87 -323.308 1087.47 -431.986 997.372 -461.229C910.48 -489.423 806.211 -432.091 709.921 -432.091C613.632 -432.091 509.467 -489.423 422.523 -461.177C332.429 -431.933 282.027 -323.308 207.054 -268.706C131.346 -213.58 12.6378 -198.879 -42.4896 -123.119C-97.0395 -48.1471 -74.7785 69.0363 -104.022 159.076C-132.164 245.914 -220 327.186 -220 423.474C-220 519.762 -132.164 601.035 -103.917 687.925C-74.6735 778.017 -96.987 895.148 -42.3846 970.12C12.7429 1045.83 131.398 1060.58 207.159 1115.71C282.132 1170.26 332.535 1278.93 422.629 1308.18C509.52 1336.37 613.79 1279.04 710.079 1279.04C806.368 1279.04 910.638 1336.37 997.529 1308.18C1087.62 1278.93 1138.03 1170.31 1213 1115.71C1288.71 1060.58 1407.41 1045.88 1462.54 970.12C1517.09 895.148 1494.83 777.965 1524.07 687.925C1552.27 601.035 1640.16 519.762 1640.16 423.474C1640.16 327.186 1552.32 245.914 1524.07 159.024H1523.92ZM1395.92 593.579C1379.8 664.614 1301.47 709.87 1266.13 769.197C1229.48 830.729 1226.39 920.874 1173.62 967.023C1120.33 1013.64 1030.34 1004.67 965.293 1032.65C900.872 1060.37 845.535 1132.03 774.237 1138.55C705.406 1144.85 638.151 1085.1 567.115 1069.03C496.079 1052.97 409.608 1077.8 350.28 1042.47C288.748 1005.82 269.742 917.304 223.54 864.54C176.918 811.251 91.8113 780.537 63.8276 715.488C36.1064 651.068 72.123 568.378 65.6127 497.081C59.3124 428.252 8.12263 353.647 24.2408 282.665C40.3591 211.631 118.693 166.374 154.027 106.995C190.673 45.4631 193.771 -44.682 246.536 -90.8309C299.826 -137.452 389.815 -128.475 454.865 -156.458C519.285 -184.179 574.623 -255.843 645.921 -262.353C714.751 -268.654 782.007 -208.907 853.043 -192.841C924.078 -176.723 1010.55 -201.609 1069.88 -166.276C1131.41 -129.63 1150.42 -41.1119 1196.62 11.6521C1243.24 64.9412 1328.35 95.6546 1356.33 160.704C1384.05 225.123 1348.03 307.813 1354.54 379.11C1360.85 447.94 1412.03 522.545 1395.92 593.527V593.579Z" fill="white" fill-opacity="0.5"/>
</svg>
