<svg width="513" height="492" viewBox="0 0 513 492" fill="none" xmlns="http://www.w3.org/2000/svg">
<g clip-path="url(#clip0_314_2498)">
<path opacity="0.1" d="M480.984 173.102C472.918 148.27 479.072 115.985 464.013 95.3206C448.808 74.4534 416.082 70.3871 395.187 55.1925C374.509 40.1571 360.607 10.2021 335.759 2.14178C311.794 -5.62916 283.035 10.1732 256.478 10.1732C229.921 10.1732 201.192 -5.62916 177.212 2.15625C152.364 10.2166 138.462 40.1571 117.784 55.207C96.9034 70.4016 64.163 74.4534 48.9585 95.3351C33.9133 116 40.053 148.299 31.9874 173.117C24.2258 197.052 0 219.453 0 245.993C0 272.533 24.2258 294.934 32.0163 318.883C40.082 343.716 33.9278 376 48.9875 396.665C64.192 417.532 96.9179 421.599 117.813 436.793C138.491 451.829 152.393 481.784 177.241 489.844C201.206 497.615 229.965 481.812 256.522 481.812C283.079 481.812 311.837 497.615 335.802 489.844C360.651 481.784 374.552 451.843 395.23 436.793C416.111 421.599 448.852 417.547 464.056 396.665C479.101 376 472.962 343.701 481.027 318.883C488.803 294.934 513.043 272.533 513.043 245.993C513.043 219.453 488.818 197.052 481.027 173.102H480.984ZM445.68 292.879C441.235 312.458 419.63 324.932 409.885 341.284C399.777 358.245 398.923 383.091 384.37 395.811C369.672 408.661 344.853 406.187 326.911 413.9C309.144 421.541 293.881 441.294 274.217 443.088C255.233 444.825 236.683 428.357 217.091 423.928C197.499 419.5 173.65 426.345 157.287 416.606C140.316 406.505 135.074 382.107 122.331 367.564C109.472 352.876 85.9996 344.41 78.2815 326.481C70.6358 308.725 80.5694 285.933 78.7738 266.281C77.0362 247.31 62.9177 226.746 67.3632 207.182C71.8087 187.602 93.4136 175.128 103.159 158.762C113.266 141.802 114.121 116.955 128.674 104.235C143.371 91.3845 168.191 93.8591 186.132 86.146C203.9 78.5053 219.162 58.7524 238.827 56.958C257.81 55.2215 276.36 71.6895 295.952 76.1176C315.544 80.5602 339.394 73.7009 355.756 83.4399C372.728 93.5407 377.97 117.939 390.712 132.482C403.571 147.17 427.044 155.636 434.762 173.565C442.408 191.321 432.474 214.113 434.27 233.765C436.007 252.736 450.126 273.3 445.68 292.864V292.879Z" fill="white" fill-opacity="0.5"/>
</g>
<defs>
<clipPath id="clip0_314_2498">
<rect width="513" height="492" fill="white"/>
</clipPath>
</defs>
</svg>
