<svg width="33" height="33" viewBox="0 0 33 33" fill="none" xmlns="http://www.w3.org/2000/svg">
<g clip-path="url(#clip0_314_2567)">
<path d="M9.82009 1.40894L9.82222 1.41212C8.63731 2.40276 7.45028 3.56328 5.87891 3.87226C7.06275 2.87631 8.3878 2.04282 9.82009 1.40894Z" fill="#FFA9F7"/>
<path d="M9.42627 25.8182C9.79257 25.8416 10.6706 25.9042 10.6568 26.4404C10.6494 26.7558 10.2481 27.1465 10.0219 27.3398C9.68321 27.6275 9.28506 27.8664 8.92938 28.134C8.2127 28.6723 7.50346 29.2202 6.7475 29.7043L6.69653 29.7733C4.28001 27.9853 2.36887 25.5528 1.21582 22.7295L1.26254 22.7115C2.9093 22.5087 4.43715 21.7633 6.03613 21.3545C6.44384 21.2494 8.11396 20.8417 8.3486 21.054C8.77967 21.4437 8.12458 22.3356 7.85595 22.6361C7.25076 23.3114 5.35661 24.99 7.07982 25.6133C7.80499 25.8756 8.66925 25.7683 9.42627 25.8182Z" fill="#DDFF83"/>
<path d="M32.8207 14.0718C32.8494 14.4922 32.3185 14.7046 32 14.9169C30.9382 15.4478 29.7703 15.7664 28.9209 16.722C28.3901 17.4652 28.9209 18.3146 29.7703 18.4208C30.8321 18.4208 31.8938 18.3146 32.7103 19.1046L32.7931 19.1184C32.7368 19.4741 32.6689 19.8255 32.5892 20.1738C31.6592 21.2961 30.2895 21.8249 28.9209 22.5617C28.3901 22.8803 27.753 23.305 28.0715 24.0482C29.0271 24.4729 30.0888 24.3668 31.0444 24.2139L31.0794 24.233C30.2216 25.8469 29.1035 27.3026 27.7806 28.5417L27.77 28.531C27.5184 28.6415 27.2657 28.7487 27.0119 28.8517C26.0022 29.2626 24.8428 29.6809 23.7396 29.4463C22.6885 29.2233 22.0621 28.2921 22.1014 27.2367C22.1449 26.0996 22.9221 25.1227 23.7619 24.4252C24.7525 23.6023 25.8631 22.8983 26.9822 22.2634C27.7201 21.845 28.6831 21.2759 28.8477 20.3628C29.0059 19.4868 28.3688 19.1003 27.5916 19.1014C26.9142 19.1014 26.0489 19.3849 25.4639 18.9071C24.6262 18.2233 26.085 17.0596 26.5299 16.5776C28.2319 14.7322 30.2099 13.1661 32.2824 11.7582L32.3058 11.7507C32.5319 12.5035 32.705 13.2776 32.8218 14.0718H32.8207Z" fill="#FFA9F7"/>
<path d="M27.0118 28.8517C27.2655 28.7487 27.5182 28.6414 27.7699 28.531L27.7805 28.5416C24.8299 31.3065 20.8622 33 16.4995 33C14.1042 33 11.8278 32.4893 9.77441 31.5709L9.78928 31.538C12.5753 30.0133 15.8614 28.9324 17.0293 25.8532C17.454 24.6853 16.2861 23.5173 15.012 23.7297C14.2688 23.8358 13.6317 24.0482 12.8885 23.942C12.3576 23.8358 12.3576 23.305 12.57 22.9864C13.6317 21.7123 15.2243 21.0752 16.7108 20.2258C18.1972 19.5887 22.2669 17.2029 22.975 16.7219C24.0994 15.9575 24.78 15.0231 25.3109 13.8552C25.3109 13.6428 25.4171 13.3243 25.2047 13.1119C24.5677 12.6872 23.8244 12.8996 23.0812 13.0057C18.9404 14.0675 17.9201 14.9201 13.9917 16.4066C13.6731 16.5128 8.53536 18.8455 8.00449 17.8899C7.79214 17.4652 9.22337 16.3588 8.90485 15.9341C8.48015 15.5094 7.04892 16.1911 6.51805 16.1911C5.45631 16.4034 3.34663 17.2263 3.0143 16.0849C2.56306 14.5315 5.24396 14.0675 6.51805 13.2181C7.36744 12.6872 8.11066 11.8378 7.79214 10.8822C7.68597 10.3513 6.89391 10.3863 6.57538 10.5987C4.23955 11.7666 2.37726 13.2181 0.124239 14.5941L0.109375 14.592C0.238908 13.4623 0.483108 12.3687 0.829236 11.3207C1.80498 10.8652 2.87521 10.5042 3.86263 10.0742C4.26291 9.89898 5.93409 9.39145 5.50833 8.73845C5.26413 8.36471 4.16948 8.37108 4.80121 7.751C5.16327 7.39531 6.2059 7.13517 5.28006 6.63295C4.58886 6.25815 3.75115 6.69135 3.07482 6.90583C3.87962 5.78141 4.82245 4.7621 5.87888 3.87233C7.45026 3.56336 8.63729 2.40284 9.82219 1.4122L9.82007 1.40901C11.4626 0.679574 13.2463 0.212392 15.1192 0.057373L15.1213 0.0817939C13.4194 1.85708 11.1897 2.91886 9.06623 4.40535C8.85388 4.6177 8.53536 5.04241 8.85388 5.25477C9.70327 5.78566 10.765 5.5733 11.6144 5.14859C12.57 4.6177 13.5255 3.98064 14.4811 3.44975C15.3305 2.91886 16.4984 2.49415 17.3478 3.34357C17.7725 4.93623 15.9676 5.89183 15.1182 7.05979C14.6935 7.69685 14.4811 8.44009 14.9058 9.18334C15.7552 9.60805 16.9231 9.60805 17.7725 9.28952C21.1499 7.70641 24.5284 6.22735 27.8622 4.53594C29.9178 6.48855 31.47 8.96461 32.3056 11.7507L32.2823 11.7581C30.2098 13.1661 28.2317 14.7322 26.5298 16.5775C26.0849 17.0596 24.6261 18.2233 25.4638 18.9071C26.0488 19.3849 26.9141 19.1014 27.5915 19.1014C28.3687 19.1014 29.0057 19.4868 28.8475 20.3628C28.683 21.2759 27.72 21.845 26.9821 22.2634C25.863 22.8983 24.7524 23.6023 23.7618 24.4251C22.922 25.1227 22.1448 26.0996 22.1012 27.2367C22.062 28.2921 22.6884 29.2233 23.7395 29.4463C24.8427 29.6809 26.0021 29.2626 27.0118 28.8517Z" fill="#DDFF83"/>
<path d="M5.5082 8.73844C5.93396 9.39143 4.26277 9.89896 3.8625 10.0742C2.87508 10.5042 1.80484 10.8652 0.829102 11.3207C1.35573 9.72802 2.11699 8.24259 3.07469 6.90582C3.75102 6.69134 4.58873 6.25813 5.27992 6.63294C6.20576 7.13516 5.16313 7.39529 4.80108 7.75099C4.16934 8.37107 5.264 8.3647 5.5082 8.73844Z" fill="#FFA9F7"/>
<path d="M32.5889 20.1738C32.263 21.6062 31.7512 22.9684 31.0791 24.233L31.0441 24.2139C30.0885 24.3668 29.0268 24.473 28.0712 24.0482C27.7527 23.305 28.3898 22.8803 28.9206 22.5618C30.2892 21.8249 31.6589 21.2961 32.5889 20.1738Z" fill="#DDFF83"/>
<path d="M31.9996 14.917C32.3181 14.7046 32.849 14.4922 32.8203 14.0718H32.8214C32.9393 14.8639 32.9998 15.6751 32.9998 16.5001C32.9998 17.3909 32.9286 18.2658 32.7927 19.1184L32.7099 19.1046C31.8934 18.3146 30.8317 18.4208 29.77 18.4208C28.9206 18.3146 28.3897 17.4652 28.9206 16.722C29.77 15.7664 30.9379 15.4478 31.9996 14.917Z" fill="#DDFF83"/>
<path d="M27.8624 4.53591C24.5285 6.22732 21.15 7.70637 17.7726 9.28948C16.9232 9.60801 15.7553 9.60801 14.9059 9.1833C14.4812 8.44006 14.6936 7.69681 15.1183 7.05975C15.9677 5.89179 17.7726 4.9362 17.3479 3.34353C16.4985 2.49411 15.3306 2.91882 14.4812 3.44971C13.5257 3.9806 12.5701 4.61766 11.6145 5.14855C10.7651 5.57326 9.70339 5.78562 8.85399 5.25473C8.53547 5.04237 8.85399 4.61766 9.06634 4.40531C11.1898 2.91882 13.4195 1.85705 15.1215 0.0817567L15.1193 0.0573359C15.5748 0.019112 16.0346 0 16.4996 0C20.9026 0 24.9043 1.72432 27.8624 4.53591Z" fill="#FFA9F7"/>
<path d="M25.2047 13.1118C25.417 13.3242 25.3109 13.6427 25.3109 13.8551C24.78 15.023 24.0994 15.9574 22.975 16.7219C22.2669 17.2029 18.1972 19.5887 16.7108 20.2257C15.2243 21.0752 13.6317 21.7122 12.57 22.9864C12.3576 23.3049 12.3576 23.8358 12.8885 23.942C13.6317 24.0481 14.2688 23.8358 15.012 23.7296C16.2861 23.5172 17.454 24.6852 17.0293 25.8531C15.8614 28.9323 12.5753 30.0132 9.78926 31.5379L9.7744 31.5708C8.67974 31.0824 7.64879 30.4782 6.69641 29.7732L6.74737 29.7042C7.50333 29.22 8.21257 28.6722 8.92925 28.1338C9.28493 27.8663 9.68309 27.6274 10.0218 27.3396C10.2479 27.1464 10.6493 26.7557 10.6567 26.4403C10.6705 25.9041 9.79245 25.8415 9.42614 25.8181C8.66912 25.7682 7.80486 25.8754 7.0797 25.6132C5.35649 24.9899 7.25064 23.3113 7.85583 22.636C8.12445 22.3355 8.77954 21.4436 8.34848 21.0539C8.11383 20.8416 6.44371 21.2493 6.036 21.3544C4.43702 21.7632 2.90917 22.5086 1.26241 22.7114L1.21569 22.7294C0.432129 20.8076 0 18.7042 0 16.5C0 15.8544 0.037161 15.2173 0.109359 14.592L0.124224 14.5941C2.37724 13.218 4.23954 11.7666 6.57537 10.5986C6.89389 10.3863 7.68595 10.3512 7.79212 10.8821C8.11065 11.8377 7.36743 12.6871 6.51803 13.218C5.24394 14.0674 2.56305 14.5314 3.01429 16.0848C3.34661 17.2262 5.45629 16.4033 6.51803 16.191C7.0489 16.191 8.48013 15.5093 8.90483 15.934C9.22335 16.3587 7.79212 17.4651 8.00447 17.8898C8.53534 18.8454 13.6731 16.5127 13.9916 16.4065C17.9201 14.92 18.9404 14.0674 23.0812 13.0057C23.8244 12.8995 24.5676 12.6871 25.2047 13.1118Z" fill="#FFA9F7"/>
<path d="M1.26221 22.7115C2.90897 22.5087 4.43682 21.7633 6.0358 21.3545C6.44351 21.2494 8.11363 20.8417 8.34827 21.054C8.77934 21.4437 8.12424 22.3356 7.85562 22.6361C7.25043 23.3114 5.35628 24.99 7.07949 25.6133C7.80466 25.8756 8.66892 25.7683 9.42594 25.8182C9.79224 25.8416 10.6703 25.9042 10.6565 26.4404C10.6491 26.7558 10.2477 27.1465 10.0216 27.3398C9.68288 27.6275 9.28473 27.8664 8.92905 28.134C8.21237 28.6723 7.50313 29.2202 6.74717 29.7043" stroke="black" stroke-width="0.1" stroke-miterlimit="10"/>
<path d="M32.6123 20.1462C32.6049 20.1558 32.5974 20.1654 32.5889 20.1738C31.6589 21.2961 30.2892 21.8249 28.9206 22.5618C28.3898 22.8803 27.7527 23.305 28.0712 24.0483C29.0268 24.473 30.0885 24.3668 31.0441 24.2139" stroke="black" stroke-width="0.1" stroke-miterlimit="10"/>
<path d="M32.8203 14.0718C32.849 14.4922 32.3181 14.7046 31.9996 14.917C30.9379 15.4478 29.77 15.7664 28.9206 16.722C28.3897 17.4652 28.9206 18.3146 29.77 18.4208C30.8317 18.4208 31.8934 18.3146 32.7099 19.1046" stroke="black" stroke-width="0.1" stroke-miterlimit="10"/>
</g>
<defs>
<clipPath id="clip0_314_2567">
<rect width="33" height="33" fill="white"/>
</clipPath>
</defs>
</svg>
