<svg width="202" height="202" viewBox="0 0 202 202" fill="none" xmlns="http://www.w3.org/2000/svg">
<g clip-path="url(#clip0_314_2533)">
<path d="M201.729 95.8276C202.198 104.897 201.453 113.748 199.632 122.22C185.019 122.287 171.498 132.169 165.258 145.172C161.111 155.543 161.61 167.469 166.908 177.361C159.149 184.074 150.338 189.626 140.741 193.742L140.731 193.716C132.842 174.531 127.976 152.395 137.983 133.001C141.97 125.274 148.157 118.921 156.094 115.257C164.322 111.459 173.705 111.334 181.906 107.483C191.602 102.93 196.66 93.3663 200.355 83.8491H200.397C201.073 87.7622 201.521 91.7584 201.729 95.8276Z" fill="#BC99FF"/>
<path d="M200.397 83.8441H200.355C196.66 93.3665 191.602 102.931 181.906 107.484C173.705 111.334 164.322 111.459 156.094 115.258C148.157 118.921 141.97 125.274 137.983 133.002C127.976 152.395 132.842 174.531 140.731 193.716L140.741 193.742C137.073 195.314 133.294 196.672 129.412 197.811L129.386 197.733C128.767 191.676 127.289 185.099 122.61 180.796C118.717 177.211 113.227 176.539 108.153 176.612C103.188 176.68 98.2129 177.268 93.4771 178.803C84.1357 181.831 76.5636 188.528 73.4567 197.967L73.4307 198.051C60.3005 194.325 48.2165 187.992 37.8081 179.615L37.933 179.458C65.3382 178.475 92.3999 163.905 109.053 142.05C113.737 133.205 119.462 124.879 121.023 114.992C123.105 101.463 118.421 85.8526 104.369 81.1695C90.8386 76.4863 77.3078 83.7712 65.3382 90.0154C58.5728 93.1375 50.2461 92.6172 45.0419 87.4137C37.7561 79.0881 37.7561 68.1607 38.7969 57.7537C40.3582 47.8671 43.4807 38.5008 47.1236 29.1345C49.7048 22.4271 54.3262 16.7449 56.9022 10.2926C68.7157 4.54269 81.8562 1.02513 95.8086 0.307042C96.5997 0.265414 97.3855 0.234193 98.1765 0.213379C98.1089 5.25557 96.5424 10.4227 92.9203 14.5646C80.9507 27.5734 66.379 43.7043 74.1853 61.9165C76.267 66.5997 81.4711 69.2014 86.6753 67.6404C90.3182 66.5997 93.4407 65.0386 96.5632 62.9572C102.808 57.7537 108.012 52.5502 114.778 47.8671C121.543 43.1839 129.87 41.1025 137.676 43.7043C146.523 46.8264 150.166 56.1927 150.166 65.0386C150.687 71.2828 154.33 78.0474 161.095 78.5677C166.82 78.5677 170.983 74.9253 174.105 70.2421C180.871 60.3555 181.391 48.9078 179.622 37.8607L179.632 37.8503C190.108 50.8591 197.436 66.558 200.397 83.8441Z" fill="#DDFF83"/>
<path d="M165.258 145.172C171.498 132.169 185.018 122.287 199.632 122.22C194.974 143.96 183.265 163.229 166.908 177.361C161.61 167.469 161.11 155.543 165.258 145.172Z" fill="#DDFF83"/>
<path d="M179.622 37.8606C181.391 48.9077 180.871 60.3554 174.106 70.242C170.983 74.9252 166.82 78.5676 161.095 78.5676C154.33 78.0473 150.687 71.2827 150.166 65.0385C150.166 56.1926 146.523 46.8263 137.676 43.7042C129.87 41.1024 121.543 43.1838 114.778 47.867C108.013 52.5501 102.808 57.7536 96.5634 62.9571C93.4409 65.0385 90.3184 66.5996 86.6755 67.6403C81.4713 69.2013 76.2672 66.5996 74.1855 61.9164C66.3792 43.7042 80.9509 27.5733 92.9205 14.5646C96.5426 10.4226 98.1091 5.25549 98.1767 0.213293C105.905 -0.0104581 113.467 0.650387 120.763 2.10216C117.968 5.7238 115.075 8.30994 112.988 12.4727C112.02 14.398 111.276 16.4534 110.62 18.4984C109.839 20.9388 106.951 29.431 111.453 30.0658C114.929 30.5601 118.936 26.9437 121.585 25.1797C125.837 22.3386 130.656 20.0542 135.798 19.4715C140.237 18.9719 142.922 20.6787 144.952 24.5761C146.971 28.4475 148.173 32.7404 150.739 36.3308C153.648 40.4 158.28 42.9289 163.192 40.9099C167.616 39.0887 170.947 34.7437 172.701 30.4144L172.862 30.2531C175.245 32.6675 177.504 35.2016 179.632 37.8502L179.622 37.8606Z" fill="#BC99FF"/>
<path d="M172.862 30.253L172.7 30.4143C170.947 34.7436 167.616 39.0886 163.192 40.9098C158.28 42.9287 153.648 40.3998 150.739 36.3307C148.173 32.7403 146.971 28.4474 144.952 24.576C142.922 20.6786 140.237 18.9718 135.798 19.4713C130.656 20.0541 125.837 22.3385 121.585 25.1796C118.936 26.9436 114.929 30.56 111.452 30.0657C106.951 29.4308 109.839 20.9387 110.62 18.4983C111.276 16.4533 112.02 14.3979 112.988 12.4726C115.075 8.30983 117.968 5.72369 120.763 2.10205C140.861 6.10354 158.915 16.1047 172.862 30.253Z" fill="#DDFF83"/>
<path d="M129.386 197.733L129.412 197.811C126.945 198.529 124.442 199.159 121.902 199.695L121.887 199.612C121.054 196.323 118.952 193.607 116.323 191.494C105.145 182.528 90.5212 189.132 83.9535 200.387L83.9431 200.434C80.3782 199.83 76.8654 199.029 73.4307 198.056L73.4567 197.967C76.5636 188.528 84.1356 181.831 93.4771 178.803C98.2129 177.268 103.188 176.68 108.153 176.612C113.227 176.539 118.717 177.21 122.61 180.796C127.289 185.099 128.767 191.676 129.386 197.733Z" fill="#BC99FF"/>
<path d="M121.887 199.612L121.903 199.695C116.808 200.767 111.567 201.459 106.202 201.735C98.5983 202.125 91.1511 201.667 83.9434 200.434L83.9538 200.387C90.5214 189.132 105.145 182.529 116.324 191.494C118.952 193.607 121.054 196.323 121.887 199.612Z" fill="#DDFF83"/>
<path d="M104.37 81.1694C118.421 85.8526 123.105 101.463 121.023 114.992C119.462 124.879 113.737 133.204 109.053 142.05C92.4001 163.905 65.3384 178.475 37.9332 179.458L37.8083 179.614C29.2058 172.699 21.7482 164.384 15.7894 155.002L15.8051 154.992C25.6618 147.988 37.2358 144.652 48.685 140.489C54.93 137.888 61.6955 133.204 60.6546 125.92C59.0934 107.707 39.8379 100.943 27.3479 90.0154C17.5589 81.2579 11.3451 69.4459 10.5645 56.3435C20.4368 36.4037 36.7414 20.1063 56.9024 10.2925C54.3263 16.7448 49.705 22.427 47.1238 29.1344C43.4809 38.5007 40.3584 47.867 38.7971 57.7536C37.7563 68.1606 37.7563 79.088 45.0421 87.4136C50.2463 92.6171 58.573 93.1375 65.3384 90.0154C77.308 83.7712 90.8388 76.4863 104.37 81.1694Z" fill="#BC99FF"/>
<path d="M60.6546 125.92C61.6954 133.204 54.93 137.888 48.685 140.489C37.2358 144.652 25.6617 147.988 15.805 154.992L15.7894 155.002C13.4371 151.302 11.3242 147.436 9.46631 143.419L9.62764 143.346C15.3782 139.449 20.062 135.286 24.7458 130.603C26.8274 128.521 29.4295 125.399 28.3887 122.277C24.7458 109.799 9.91386 107.567 0.150834 101.531C0.0519549 85.3686 3.79896 70.0027 10.5644 56.3435C11.345 69.4459 17.5588 81.2579 27.3478 90.0154C39.8379 100.943 59.0933 107.707 60.6546 125.92Z" fill="#DDFF83"/>
<path d="M28.3887 122.277C29.4296 125.399 26.8275 128.521 24.7458 130.603C20.062 135.286 15.3783 139.449 9.62768 143.346L9.46635 143.419C4.18932 132.049 0.967934 119.498 0.280983 106.214C0.197716 104.648 0.156083 103.087 0.150879 101.531C9.91391 107.567 24.7458 109.799 28.3887 122.277Z" fill="#BC99FF"/>
</g>
<defs>
<clipPath id="clip0_314_2533">
<rect width="202" height="202" fill="white"/>
</clipPath>
</defs>
</svg>
