<svg width="16" height="16" viewBox="0 0 16 16" fill="none" xmlns="http://www.w3.org/2000/svg">
<g clip-path="url(#clip0_314_2562)">
<path d="M16.0001 7.99998C16.0001 8.36625 15.976 8.72769 15.9278 9.0807L15.8953 9.07589C14.9327 9.86625 13.4074 10.0602 12.2772 9.64697C10.3134 8.9289 8.86277 6.8036 9.80012 4.74456C10.1049 4.07468 11.7086 2.7807 10.9748 2.04697C10.5266 1.59998 8.27964 2.7554 7.9194 2.3783C7.46398 1.90119 8.63506 0.630103 8.92181 0.122874L8.93024 0.0541992C12.911 0.51444 16.0001 3.89637 16.0001 7.99998Z" fill="#BC99FF"/>
<path d="M15.8953 9.0759L15.9278 9.08072C15.7519 10.3855 15.2603 11.5904 14.5338 12.6169C13.4941 12.6241 12.5387 13.3012 11.4868 13.1084C10.5399 12.9349 9.87118 12.1084 8.91938 11.941C8.08805 11.7952 7.1507 12.1301 6.8507 12.9735C6.49287 13.9783 7.16877 15.0265 7.60371 15.8892L7.6001 15.9892C6.48082 15.9349 5.42179 15.6494 4.46877 15.1795C6.16877 13.2494 2.89046 12.2687 2.0507 10.106C1.70853 9.2253 3.96155 8.52651 4.5495 7.86265C5.14347 7.19277 5.37721 6.10241 4.76757 5.36145C3.80974 4.19879 1.94829 5.18795 0.714558 4.74819L0.692871 4.73855C1.94106 1.94578 4.74347 0 8.0001 0C8.31456 0 8.6254 0.0180723 8.93022 0.0542169L8.92179 0.122892C8.63504 0.63012 7.46396 1.9012 7.91938 2.37831C8.27962 2.75542 10.5266 1.6 10.9748 2.04699C11.7085 2.78072 10.1049 4.0747 9.8001 4.74458C8.86275 6.80361 10.3134 8.92892 12.2772 9.64699C13.4073 10.0602 14.9326 9.86627 15.8953 9.0759Z" fill="#85FFFC"/>
<path d="M14.5335 12.6169C13.0853 14.6639 10.6986 16.0001 7.99978 16.0001C7.86604 16.0001 7.73231 15.9964 7.59978 15.9892L7.60339 15.8892C7.16845 15.0266 6.49255 13.9784 6.85038 12.9736C7.15038 12.1302 8.08773 11.7952 8.91906 11.941C9.87086 12.1085 10.5395 12.935 11.4865 13.1085C12.5383 13.3013 13.4938 12.6242 14.5335 12.6169Z" fill="#BC99FF"/>
<path d="M4.76747 5.36142C5.37711 6.10238 5.14337 7.19274 4.5494 7.86262C3.96145 8.52648 1.70843 9.22527 2.0506 10.106C2.89036 12.2686 6.16867 13.2494 4.46867 15.1795C1.82169 13.8759 0 11.1506 0 7.99997C0 6.83853 0.246988 5.73491 0.692771 4.73853L0.714458 4.74816C1.94819 5.18792 3.80964 4.19877 4.76747 5.36142Z" fill="#BC99FF"/>
</g>
<defs>
<clipPath id="clip0_314_2562">
<rect width="16" height="16" fill="white"/>
</clipPath>
</defs>
</svg>
