<svg width="66" height="54" viewBox="0 0 66 54" fill="none" xmlns="http://www.w3.org/2000/svg">
<g clip-path="url(#clip0_314_2555)">
<path d="M26.5511 23.8118C28.1496 26.9666 26.339 27.8312 25.7596 28.033C21.9054 30.0257 17.5188 31.2726 16.62 35.3163L16.516 35.372C16.0737 34.5494 15.6929 33.6792 15.3755 32.7675C13.7522 28.1042 14.1387 23.2232 16.0823 19.0828L16.1584 19.1149C19.6548 21.6937 24.3301 19.4282 26.5511 23.8118Z" fill="#FFA9F7"/>
<path d="M26.5309 9.64431C35.0259 6.68722 44.2428 10.4326 48.4193 18.1006L48.1958 18.224C47.4019 21.1503 46.1575 24.3506 41.432 24.5306C38.3325 24.9584 34.5136 25.578 32.9234 22.8761C31.158 21.5373 31.4086 17.498 31.5803 15.0422C30.2192 14.8649 25.7522 17.7285 25.018 16.5712C23.6965 14.4919 25.3413 11.901 26.0159 9.88215L26.0018 9.8415C26.1716 9.76937 26.3512 9.70684 26.5309 9.64431Z" fill="#FFA9F7"/>
<path d="M49.5977 32.1058L49.8374 32.1786C48.1955 37.5031 44.1355 42.0026 38.4799 43.9713C34.3019 45.4256 29.948 45.2549 26.1081 43.7983L26.1531 43.685C26.3255 40.8578 24.6646 39.2222 27.6326 37.1473C29.6432 35.7378 32.1592 38.2997 34.0337 36.8724C38.6564 33.336 43.3995 26.4502 49.5977 32.1058Z" fill="#FFA9F7"/>
<path d="M27.633 37.1473C24.665 39.2221 26.3259 40.8578 26.1535 43.6849L26.1085 43.7982C22.0912 42.2797 18.6325 39.3427 16.5161 35.372L16.6202 35.3162C17.519 31.2726 21.9056 30.0256 25.7597 28.0329C26.3392 27.8312 28.1497 26.9666 26.5512 23.8117C24.3302 19.4282 19.6549 21.6937 16.1585 19.1149L16.0824 19.0828C18.0011 14.9641 21.4613 11.5784 26.0022 9.84151L26.0163 9.88216C25.3417 11.901 23.6969 14.492 25.0184 16.5712C25.7526 17.7285 30.2196 14.8649 31.5807 15.0422C36.5667 16.1519 32.9179 24.1283 41.4324 24.5306C45.1471 24.6569 47.4023 21.1503 48.1962 18.224L48.4197 18.1006C48.8897 18.9657 49.2983 19.8783 49.6339 20.8423C50.96 24.6519 50.9449 28.6027 49.8378 32.1785L49.5981 32.1057C43.3999 26.4501 38.6568 33.336 34.0342 36.8723C32.1596 38.2997 29.6436 35.7377 27.633 37.1473Z" fill="#BC99FF"/>
<path d="M40.6593 10.0849C46.9088 7.97463 51.6451 7.7323 52.8956 9.86885C54.9493 13.3796 46.7888 21.9824 34.6694 29.0855C22.55 36.1886 11.0556 39.0959 9.00194 35.5851C7.90644 33.7072 9.71974 30.3869 13.4929 26.6124C8.27458 31.4239 5.61566 35.7677 6.98932 38.1088C9.30349 42.0693 22.2658 38.7877 35.9293 30.7825C49.5928 22.7774 58.7997 13.0745 56.4855 9.11406C54.9447 6.47955 48.6933 7.05395 40.6593 10.0849Z" fill="#DDFF83"/>
</g>
<defs>
<clipPath id="clip0_314_2555">
<rect width="56.3752" height="36.3472" fill="white" transform="translate(0.217285 18.804) rotate(-19.1928)"/>
</clipPath>
</defs>
</svg>
