<svg width="33" height="33" viewBox="0 0 33 33" fill="none" xmlns="http://www.w3.org/2000/svg">
<g clip-path="url(#clip0_306_2296)">
<path d="M33.0001 16.5C33.0001 17.2554 32.9504 18.0009 32.851 18.729L32.7839 18.719C30.7984 20.3492 27.6525 20.7492 25.3216 19.8969C21.2712 18.4159 18.2793 14.0324 20.2126 9.78569C20.8413 8.40406 24.1487 5.73523 22.6354 4.22191C21.711 3.29999 17.0766 5.68305 16.3336 4.90526C15.3943 3.92123 17.8096 1.29962 18.4011 0.253458L18.4184 0.111816C26.6287 1.06106 33.0001 8.03629 33.0001 16.5Z" fill="#BC99FF"/>
<path d="M32.7837 18.7191L32.8508 18.729C32.488 21.4202 31.4741 23.9051 29.9757 26.0223C27.8312 26.0372 25.8606 27.4337 23.6913 27.0361C21.7381 26.6783 20.359 24.9736 18.3959 24.6282C16.6813 24.3276 14.748 25.0184 14.1292 26.7578C13.3912 28.8303 14.7853 30.9922 15.6823 32.7714L15.6749 32.9776C13.3664 32.8658 11.1821 32.2769 9.21651 31.3078C12.7228 27.3269 5.96124 25.3041 4.22924 20.8437C3.52352 19.0272 8.17035 17.5859 9.383 16.2167C10.6081 14.8351 11.0902 12.5862 9.83278 11.058C7.85725 8.66002 4.01802 10.7002 1.47344 9.79315L1.42871 9.77327C4.00311 4.01318 9.78308 0 16.4999 0C17.1484 0 17.7896 0.0372741 18.4182 0.111822L18.4008 0.253464C17.8094 1.29962 15.3941 3.92124 16.3334 4.90527C17.0764 5.68306 21.7108 3.3 22.6352 4.22191C24.1485 5.73524 20.8411 8.40407 20.2124 9.78569C18.2791 14.0325 21.271 18.4159 25.3214 19.8969C27.6523 20.7492 30.7982 20.3492 32.7837 18.7191Z" fill="#FFA9F7"/>
<path d="M29.9759 26.0223C26.989 30.2442 22.0663 33 16.5001 33C16.2242 33 15.9484 32.9926 15.6751 32.9776L15.6825 32.7714C14.7855 30.9922 13.3914 28.8303 14.1294 26.7578C14.7482 25.0184 16.6815 24.3276 18.3961 24.6282C20.3592 24.9737 21.7383 26.6783 23.6915 27.0362C25.8608 27.4337 27.8314 26.0372 29.9759 26.0223Z" fill="#BC99FF"/>
<path d="M9.83291 11.0579C11.0903 12.5861 10.6082 14.835 9.38313 16.2166C8.17048 17.5858 3.52364 19.0271 4.22937 20.8436C5.96137 25.3041 12.7229 27.3268 9.21664 31.3077C3.75723 28.619 0 22.998 0 16.4999C0 14.1044 0.509413 11.8282 1.42884 9.77319L1.47357 9.79307C4.01815 10.7001 7.85738 8.65994 9.83291 11.0579Z" fill="#BC99FF"/>
</g>
<defs>
<clipPath id="clip0_306_2296">
<rect width="33" height="33" fill="white"/>
</clipPath>
</defs>
</svg>
