<svg width="445" height="299" viewBox="0 0 445 299" fill="none" xmlns="http://www.w3.org/2000/svg">
<g clip-path="url(#clip0_306_2270)">
<path d="M285.037 165.971C273.427 174.036 261.391 182.143 248.985 190.222C232.833 200.744 216.865 210.669 201.295 219.941C180.103 232.563 159.65 243.951 140.418 253.876C67.1076 291.801 11.6529 308.769 1.60382 293.306C-8.8853 277.176 32.9151 230.121 102.393 175.498C102.663 177.798 102.989 180.099 103.401 182.399C68.9528 212.074 50.7849 235.247 56.6469 244.249C61.9553 252.428 86.7942 246.72 122.051 231.016C146.748 220.026 176.541 204.123 208.335 184.656C216.524 179.644 224.842 174.391 233.23 168.924C256.253 153.93 277.571 138.822 296.307 124.411C315.014 110.041 331.138 96.3536 343.813 84.1851C366.693 62.2337 378.332 45.2092 373.592 37.9252C368.368 29.8744 344.253 35.27 309.905 50.3918C308.258 49.2559 306.597 48.1626 304.894 47.0977C304.298 46.7285 303.702 46.3593 303.106 46.0043L303.219 45.8056C377.197 7.41178 433.276 -9.85405 443.396 5.69372C453.09 20.6025 418.117 61.9213 357.908 111.22C336.518 128.741 311.934 147.271 285.037 165.971Z" fill="#FFA9F7"/>
<path d="M363.656 128.457C370.54 156.528 367.872 185.196 357.397 210.584L357.013 210.427C351.549 207.943 340.137 211.223 336.887 204.918C334.218 199.75 361.896 170.6 349.122 166.34C340.606 163.5 329.904 178.026 320.947 171.991C308.627 163.685 350.087 142.656 363.259 128.557L363.656 128.457Z" fill="#BC99FF"/>
<path d="M363.656 128.457L363.259 128.557C350.087 142.656 308.627 163.685 320.947 171.991C329.904 178.026 340.606 163.5 349.122 166.34C361.896 170.6 334.219 199.75 336.887 204.918C340.137 211.223 351.549 207.943 357.014 210.427L357.397 210.584C343.97 243.198 317.697 270.404 282.255 284.049L282 283.395C279.672 265.675 303.063 253.052 312.672 241.154C316.987 235.801 320.522 229.497 320.593 222.44C320.621 217.811 320.138 214.659 315.596 213.04C311.509 211.592 306.64 210.612 302.311 211.492C292.915 213.381 283.831 222.014 276.649 227.949C272.235 231.598 262.143 235.645 259.46 227.878C254.862 214.517 268.97 203.626 277.515 196.143C285.846 188.859 302.396 172.346 285.037 165.971C311.934 147.271 336.518 128.741 357.908 111.22L358.461 111.887C358.603 112.285 358.759 112.668 358.901 113.052C360.817 118.149 362.407 123.289 363.656 128.457Z" fill="#85FFFC"/>
<path d="M331.607 69.0491C336.007 73.7489 340.094 78.8037 343.813 84.1851C331.138 96.3535 315.014 110.041 296.307 124.411L296.137 124.198C289.806 126.796 276.734 125.163 278.153 118.064C280.992 96.7653 303.702 88.246 322.154 76.8869C324.978 74.0613 327.803 71.2357 331.607 69.0491Z" fill="#85FFFC"/>
<path d="M309.904 50.3919C317.739 55.7732 325.035 62.0207 331.607 69.0492C327.803 71.2358 325.29 74.4164 322.154 76.887C305.15 90.3191 280.992 96.7654 278.153 118.064C276.734 125.163 289.806 126.796 296.137 124.198L296.307 124.411C277.571 138.822 256.252 153.93 233.23 168.924C224.842 174.391 216.524 179.644 208.335 184.656L208.107 184.273C214.083 178.366 224.217 167.76 218.54 159.24C212.862 152.141 204.346 154.981 200.088 150.721C197.249 146.461 198.669 139.362 202.927 136.522C218.54 125.163 235.43 121.372 248.318 111.759C252.576 108.92 256.834 103.24 255.415 98.9804C252.576 87.6213 239.163 89.2968 229.866 96.1406C212.834 106.08 162.006 152.865 152.568 148.066C142.93 143.167 177.69 105.739 172.652 101.891C165.001 96.0412 139.055 126.583 137.636 128.003C131.958 135.102 117.722 155.393 113.947 151.303C108.979 145.922 130.468 131.297 124.862 126.583C117.523 120.435 109.93 137.104 102.677 142.543H102.62C108.851 95.5017 140.106 53.331 187.612 35.4404C201.763 30.1159 216.24 27.3613 230.548 26.9353C223.749 30.5986 218.199 37.3005 210.024 41.3898C198.669 47.0693 189.684 55.2195 181.636 65.5279C179.678 68.0411 177.449 74.8707 178.514 76.3474C186.377 87.2663 203.963 66.1384 215.701 61.2682C219.846 59.5501 229.952 55.0775 231.314 61.2682C233.259 70.1567 203.196 76.7592 208.477 84.171C213.998 91.9236 229.001 79.1872 234.153 75.4671C240.654 70.7814 245.337 65.2581 252.605 61.2682C260.951 56.6962 269.637 62.6881 278.153 61.2682C288.089 58.4284 296.307 52.7631 304.752 47.3249L304.894 47.0977C306.597 48.1626 308.258 49.2559 309.904 50.3919Z" fill="#BC99FF"/>
<path d="M315.597 213.04C320.138 214.659 320.621 217.811 320.593 222.44C320.522 229.496 316.987 235.801 312.673 241.154C303.063 253.052 279.672 265.675 282 283.395L282.256 284.049C281.943 284.176 281.631 284.304 281.319 284.418C270.163 288.621 258.793 291.219 247.467 292.327L247.396 291.574C252.605 285.61 267.92 273.059 261.107 267.762C253.386 261.771 235.388 281.464 231.314 274.251C227.809 268.075 243.081 259.272 235.573 255.793C219.889 248.551 202.927 271.412 191.132 284.645L190.82 285.568C184.177 283.268 177.733 280.428 171.545 277.105L171.772 276.694C180.402 268.288 188.719 259.357 195.007 249.02C199.847 241.069 208.278 228.716 201.295 219.941C216.865 210.669 232.833 200.744 248.986 190.222C261.391 182.143 273.427 174.036 285.038 165.971C302.396 172.346 285.847 188.859 277.515 196.143C268.97 203.626 254.862 214.517 259.461 227.878C262.143 235.645 272.235 231.598 276.649 227.949C283.831 222.014 292.915 213.381 302.311 211.492C306.64 210.612 311.509 211.592 315.597 213.04Z" fill="#BC99FF"/>
<path d="M304.894 47.0977L304.752 47.3249C296.307 52.763 288.089 58.4284 278.153 61.2682C269.637 62.6881 260.951 56.6961 252.605 61.2682C245.338 65.2581 240.654 70.7814 234.153 75.4671C229.001 79.1872 213.998 91.9236 208.477 84.171C203.197 76.7592 233.259 70.1567 231.314 61.2682C229.952 55.0775 219.846 59.5501 215.701 61.2682C203.963 66.1384 186.377 87.2663 178.514 76.3474C177.449 74.8707 179.678 68.041 181.636 65.5278C189.684 55.2195 198.669 47.0693 210.024 41.3897C218.199 37.3005 223.749 30.5986 230.548 26.9353C256.295 26.1685 281.475 32.984 303.106 46.0044C303.702 46.3594 304.298 46.7285 304.894 47.0977Z" fill="#85FFFC"/>
<path d="M261.107 267.762C267.92 273.059 252.605 285.61 247.396 291.574L247.467 292.326C228.036 294.258 208.732 291.815 190.82 285.568L191.132 284.645C202.927 271.412 219.888 248.551 235.572 255.793C243.081 259.271 227.809 268.075 231.314 274.251C235.388 281.464 253.386 261.77 261.107 267.762Z" fill="#85FFFC"/>
<path d="M102.393 175.498C101.073 164.409 101.187 153.348 102.62 142.543H102.677C109.93 137.104 117.524 120.435 124.862 126.583C130.468 131.297 108.979 145.922 113.947 151.303C117.722 155.393 131.959 135.102 137.636 128.003C139.055 126.583 165.001 96.0413 172.652 101.891C177.691 105.739 142.93 143.167 152.568 148.066C162.007 152.865 212.834 106.08 229.867 96.1407C239.305 88.9418 252.576 87.6213 255.415 98.9804C256.835 103.24 252.576 108.92 248.318 111.759C225.254 126.966 218.54 125.163 202.927 136.522C198.669 139.362 197.25 146.461 200.088 150.721C204.346 154.981 212.863 152.141 218.54 159.24C224.217 167.76 214.083 178.366 208.108 184.273L208.335 184.656C176.541 204.123 146.748 220.026 122.051 231.016C117.325 223.519 113.28 215.411 110.029 206.793C107.006 198.742 104.806 190.577 103.401 182.399C102.989 180.099 102.663 177.798 102.393 175.498Z" fill="#85FFFC"/>
<path d="M201.295 219.941C208.278 228.716 199.847 241.069 195.007 249.02C188.719 259.357 180.402 268.288 171.772 276.694L171.545 277.105C160.232 271.028 149.757 263.318 140.546 254.132L140.418 253.876C159.65 243.951 180.103 232.563 201.295 219.941Z" fill="#85FFFC"/>
</g>
<defs>
<clipPath id="clip0_306_2270">
<rect width="445" height="299" fill="white"/>
</clipPath>
</defs>
</svg>
