<?xml version="1.0" encoding="utf-8"?>
<!-- Generator: Adobe Illustrator 23.0.5, SVG Export Plug-In . SVG Version: 6.00 Build 0)  -->
<svg version="1.1" id="Arcoiris" xmlns="http://www.w3.org/2000/svg" xmlns:xlink="http://www.w3.org/1999/xlink" x="0px"
  y="0px" viewBox="0 0 214 242" style="enable-background:new 0 0 214 242;" xml:space="preserve">
  <g id="elements" style="isolation: isolate;">
    <defs id="dynamic-definitions">
      <filter id="path-w905rjow63--filter-list" x="-10%" y="-10%" width="120%" height="120%"
        filterUnits="objectBoundingBox">
        <feComponentTransfer id="path-w905rjow63--filter-list-brightness-0" result="result">
          <feFuncR id="path-w905rjow63--filter-list-brightness-0-R" type="linear" slope="0.5"></feFuncR>
          <feFuncG id="path-w905rjow63--filter-list-brightness-0-G" type="linear" slope="0.5"></feFuncG>
          <feFuncB id="path-w905rjow63--filter-list-brightness-0-B" type="linear" slope="0.5"></feFuncB>
        </feComponentTransfer>
      </filter>
      <filter id="path-idxz742lgke--filter-list" x="-10%" y="-10%" width="120%" height="120%"
        filterUnits="objectBoundingBox">
        <feComponentTransfer id="path-idxz742lgke--filter-list-brightness-0" result="result">
          <feFuncR id="path-idxz742lgke--filter-list-brightness-0-R" type="linear" slope="0.5"></feFuncR>
          <feFuncG id="path-idxz742lgke--filter-list-brightness-0-G" type="linear" slope="0.5"></feFuncG>
          <feFuncB id="path-idxz742lgke--filter-list-brightness-0-B" type="linear" slope="0.5"></feFuncB>
        </feComponentTransfer>
      </filter>
      <filter id="path-399wwv2cc7e--filter-list" x="-10%" y="-10%" width="120%" height="120%"
        filterUnits="objectBoundingBox">
        <feComponentTransfer id="path-399wwv2cc7e--filter-list-brightness-0" result="result">
          <feFuncR id="path-399wwv2cc7e--filter-list-brightness-0-R" type="linear" slope="0.5"></feFuncR>
          <feFuncG id="path-399wwv2cc7e--filter-list-brightness-0-G" type="linear" slope="0.5"></feFuncG>
          <feFuncB id="path-399wwv2cc7e--filter-list-brightness-0-B" type="linear" slope="0.5"></feFuncB>
        </feComponentTransfer>
      </filter>
      <filter id="path-leh1pnex1da--filter-list" x="-10%" y="-10%" width="120%" height="120%"
        filterUnits="objectBoundingBox">
        <feComponentTransfer id="path-leh1pnex1da--filter-list-brightness-0" result="result">
          <feFuncR id="path-leh1pnex1da--filter-list-brightness-0-R" type="linear" slope="0.5"></feFuncR>
          <feFuncG id="path-leh1pnex1da--filter-list-brightness-0-G" type="linear" slope="0.5"></feFuncG>
          <feFuncB id="path-leh1pnex1da--filter-list-brightness-0-B" type="linear" slope="0.5"></feFuncB>
        </feComponentTransfer>
      </filter>
      <filter id="path-u5zqke173m--filter-list" x="-10%" y="-10%" width="120%" height="120%"
        filterUnits="objectBoundingBox">
        <feComponentTransfer id="path-u5zqke173m--filter-list-brightness-0" result="result">
          <feFuncR id="path-u5zqke173m--filter-list-brightness-0-R" type="linear" slope="0.5"></feFuncR>
          <feFuncG id="path-u5zqke173m--filter-list-brightness-0-G" type="linear" slope="0.5"></feFuncG>
          <feFuncB id="path-u5zqke173m--filter-list-brightness-0-B" type="linear" slope="0.5"></feFuncB>
        </feComponentTransfer>
      </filter>
      <filter id="g-xebooa8r9ei--filter-list" x="-10%" y="-10%" width="120%" height="120%"
        filterUnits="objectBoundingBox">
        <feComponentTransfer id="g-xebooa8r9ei--filter-list-brightness-0" result="result">
          <feFuncR id="g-xebooa8r9ei--filter-list-brightness-0-R" type="linear" slope="0.5"></feFuncR>
          <feFuncG id="g-xebooa8r9ei--filter-list-brightness-0-G" type="linear" slope="0.5"></feFuncG>
          <feFuncB id="g-xebooa8r9ei--filter-list-brightness-0-B" type="linear" slope="0.5"></feFuncB>
        </feComponentTransfer>
      </filter>
    </defs>
    <defs id="definitions">
      <path id="path-sxbfrz7u9ki"
        d="M153,116L153,115L153,115C153,98.7,144.8,62.5,105.5,62.5C66.3,62.5,59,94.5,59,115L59,115.8L59,123.1L59,242L153,242L153,116L153,116Z"
        style="mix-blend-mode: normal; paint-order: fill;"></path>
    </defs>
    <g id="elements-wrapper">
      <path id="path-w905rjow63"
        d="M206,121C206,86.3,188.6,9.2,105,9.2C21.4,9.2,6,77.3,6,121L6,242L22,242L22,114C22,73.6,37.9,24.4,105.7,24.4C176.3,24.4,191,86.2,191,114L191,114C191,144.7,191,194.3,191,242L206,242C206,195.5,206,151,206,121L206,121Z"
        filter="url(#path-w905rjow63--filter-list)" fill="rgb(255,77,213)" stroke="none"
        style="mix-blend-mode: normal; paint-order: fill;"></path>
      <path id="path-idxz742lgke"
        d="M174.2,123C174.2,97.4,162.2,40.6,104.4,40.6C46.7,40.6,36,90.8,36,123L36,242L51.5,242L51.5,116.5L51.5,115.5C51.5,91.6,59.9,54.2,105.4,54.2C122.5,54.2,134.5,60.1,142.8,68.6C157.1,82.6,160.8,103.9,160.8,115.9C160.8,145.5,160.8,200.7,160.8,242L174.1,242C174.2,197.7,174.2,151.4,174.2,123L174.2,123Z"
        filter="url(#path-idxz742lgke--filter-list)" fill="rgb(103,146,255)" stroke="none"
        style="mix-blend-mode: normal; paint-order: fill;"></path>
      <path id="path-399wwv2cc7e"
        d="M105.7,24.4C37.9,24.4,22,73.6,22,114L22,242L35.7,242L36,242L36,123C36,90.8,46.7,40.6,104.4,40.6C162.1,40.6,174.2,97.4,174.2,123L174.2,123C174.2,151.4,174.2,197.7,174.2,242L176.3,242L176.6,242L191,242C191,194.3,191,144.7,191,114L191,114C191,86.2,176.3,24.4,105.7,24.4Z"
        filter="url(#path-399wwv2cc7e--filter-list)" fill="rgb(221,255,131)" stroke="none"
        style="mix-blend-mode: normal; paint-order: fill;"></path>
      <path id="path-leh1pnex1da"
        d="M142.9,68.6C133.7,59.4,122.6,54.2,105.5,54.2C60,54.2,51.6,91.5,51.6,115.5L51.6,116.5L51.6,242L58.6,242L59,242L152.5,241.6L152.5,242L160.4,242L160.7,242L160.8,242C160.8,200.7,160.8,145.5,160.8,115.9C160.9,103.9,157,82.7,142.9,68.6Z"
        filter="url(#path-leh1pnex1da--filter-list)" fill="rgb(38,103,198)" stroke="none"
        style="mix-blend-mode: normal; paint-order: fill;"></path>
      <path id="path-u5zqke173m"
        d="M153,116L153,115L153,115C153,98.7,144.8,62.5,105.5,62.5C66.3,62.5,59,94.5,59,115L59,115.8L59,123.1L59,242L153,242L153,116L153,116Z"
        filter="url(#path-u5zqke173m--filter-list)" fill="rgb(188,153,255)" stroke="none"
        style="mix-blend-mode: normal; paint-order: fill;"></path>
      <g id="g-i5w5zlee7up" style="mix-blend-mode: normal; paint-order: fill;">
        <g id="g-xebooa8r9ei" filter="url(#g-xebooa8r9ei--filter-list)"
          style="mix-blend-mode: normal; paint-order: fill;">
          <path id="path-p42qpz93wqs"
            d="M103.4,109.9C106.1,114.6,111.6,118.1,116.8,116.7C104.8,121.2,91.3,113,91.2,99.8C91.1,89,101.6,76.8,114.4,82.7C102.8,85.7,97.7,99.9,103.4,109.9Z"
            fill="rgb(221,255,131)" stroke="none" style="mix-blend-mode: normal; paint-order: fill;"
            transform="translate(0.000027 71.074074)"></path>
          <g id="g-fx9eajj31ck" clip-path="url(#clipPath-slerkxt8l6)"
            style="mix-blend-mode: normal; paint-order: fill;">
            <g id="g-c2zk53rm7ov" style="mix-blend-mode: normal; paint-order: fill;">
              <path id="path-yswtayeb33"
                d="M104.3,147.7C104,148.2,103.8,148.8,103.6,149.4C103.9,148.8,104.2,148.2,104.3,147.7ZM120.1,159.7C120.4,178,121,242.8,121,242.8L59,242.8L59,122.8C68,116,81.5,118.7,87.2,128.5C89.3,132.1,90.2,136.4,89.7,140.5C92.1,137.1,97.3,136.1,100.9,138.3C103.9,140.2,105.3,144.2,104.4,147.6L104.4,147.6C107.3,141.9,114.6,139.7,120,143.7L120.1,143.7C118.9,149,118.9,154.5,120.1,159.7"
                fill="rgb(249,194,246)" stroke="none" style="mix-blend-mode: normal; paint-order: fill;"></path>
              <path id="path-e37toky7ou"
                d="M153.1,115.7C153.1,147.4,153.1,253.3,153.1,295.7C143.6,295.7,74,295.7,74,295.7C73.9,276.8,73.9,257.9,73.9,239C73.9,228.6,73.9,218.3,74,207.9C74,206.1,74,204.3,74.1,202.6C74.6,193.2,86.6,190.3,92.6,197.8C88.3,188.6,100.2,179.7,107.8,186.4C100.7,175.8,107.7,161,120.2,159.5C114.5,139.5,130.7,113.3,153.1,115.7L153.1,115.7Z"
                fill="rgb(255,169,247)" stroke="none" style="mix-blend-mode: normal; paint-order: fill;"></path>
              <path id="path-qezhpqczpbf"
                d="M112.6,240.6C126.2,238,127,250.9,122.1,256C129.7,253.1,130.5,261.3,128.2,263.2C134.9,260.6,143.6,259,150.1,262.8C154,265.1,153.1,267.1,153.1,271.3C153.1,279.5,153.1,287.6,153.1,295.8L59,295.8L59,183.4C69,182.2,77.8,193.3,74,202.7C80.8,203,85.5,211.1,82.5,217.2C90,217.5,94.5,227.2,90,233.2C94.6,228.6,102.6,222.9,109.3,226.4C114.7,229.3,115.3,235.7,112.6,240.6Z"
                fill="rgb(249,140,244)" stroke="none" style="mix-blend-mode: normal; paint-order: fill;"></path>
            </g>
            <clipPath id="clipPath-slerkxt8l6">
              <use id="use-arkrqf8tqu" fill="rgb(0,0,0)" href="#path-sxbfrz7u9ki" stroke="none"
                style="mix-blend-mode: normal; paint-order: fill;"></use>
            </clipPath>
          </g>
        </g>
      </g>
    </g>
  </g>
</svg>