<svg width="214" height="242" viewBox="0 0 214 242" fill="none" xmlns="http://www.w3.org/2000/svg">
  <g clip-path="url(#clip0_309_2471)">
    <mask id="mask0_309_2471" style="mask-type:luminance" maskUnits="userSpaceOnUse" x="-1" y="-8" width="215"
      height="251">
      <path d="M214 -7.52515H-0.378906V242.411H214V-7.52515Z" fill="white" />
    </mask>
    <g mask="url(#mask0_309_2471)">
      <mask id="mask1_309_2471" style="mask-type:luminance" maskUnits="userSpaceOnUse" x="-17" y="-8" width="232"
        height="303">
        <path d="M214.497 -8H-17V294.707H214.497V-8Z" fill="white" />
      </mask>
      <g mask="url(#mask1_309_2471)">
        <path
          d="M206.212 120.752C206.212 165.687 206.212 242.907 206.212 311L6.48193 310.959V120.752C6.48193 76.9538 21.8958 8.70581 105.362 8.70581C188.828 8.70581 206.222 85.9468 206.222 120.752H206.212Z"
          fill="#FF4DD5" />
        <path
          d="M190.85 114.206C190.85 159.192 190.85 244.672 190.85 305.538L21.8545 305.208V114.206C21.8545 79.2356 34.8954 24.7405 105.516 24.7405C176.137 24.7405 190.86 86.4218 190.86 114.206H190.85Z"
          fill="#DDFF83" />
        <path
          d="M176.602 122.611C176.602 164.19 176.602 243.96 176.581 300.211L36.0923 300.138V122.611C36.0923 90.2834 46.9356 39.908 105.64 39.908C164.345 39.908 176.592 96.9121 176.592 122.611H176.602Z"
          fill="#6792FF" />
        <path
          d="M51.6197 294.656V115.652C51.6197 91.6565 60.0695 54.2595 105.795 54.2595C151.521 54.2595 161.064 96.5815 161.064 115.652C161.064 166.895 161.044 294.707 161.044 294.707H153.099L51.6094 294.656H51.6197Z"
          fill="#2667C6" />
        <path
          d="M153.12 115.745C153.12 147.288 153.12 222.02 153.12 264.238C146.816 257.785 135.942 259.365 128.4 262.297C130.598 260.397 129.855 252.179 122.292 255.111C127.224 250.073 126.409 237.239 112.893 239.82L112.852 239.613C116.329 235.576 114.152 229.65 111.944 227.471C105.29 220.884 95.5398 227.265 90.309 232.499C94.8485 226.594 90.3296 216.94 82.9012 216.62C85.9448 210.569 81.2608 202.474 74.4824 202.185C75.1221 200.595 75.4213 198.985 75.4006 197.374H75.4626C76.2467 196.362 76.9895 195.557 78.0831 194.865C82.7362 191.984 89.4733 193.161 92.8779 197.457C91.0002 193.492 92.3002 188.278 95.808 185.655C99.3159 183.033 104.67 183.26 107.941 186.171C104.66 181.288 104.134 174.659 106.61 169.311C109.086 163.962 114.482 160.08 120.332 159.43C119.115 154.226 119.135 148.795 120.208 143.581C122.333 133.287 128.555 123.778 137.541 118.285C143.195 114.826 146.775 115.198 153.099 115.745H153.141H153.12Z"
          fill="#FFA9F7" />
        <path
          d="M114.523 82.6533L114.503 82.5913C110.995 80.7328 106.631 80.9497 102.948 82.4261C96.9637 84.8422 92.455 90.6035 91.5471 96.9947C90.6289 103.386 93.3423 110.18 98.4184 114.175C103.381 118.078 111.067 118.832 117.01 116.612C111.851 117.975 106.311 114.444 103.639 109.767C100.812 104.79 100.451 98.4815 102.7 93.2157C104.949 87.95 108.993 84.0575 114.523 82.6533ZM153.12 114.588V115.745H153.079C146.754 115.187 143.174 114.826 137.52 118.285C128.534 123.778 122.303 133.287 120.188 143.581L120.095 143.56C114.812 139.626 107.467 141.795 104.629 147.463C105.548 144.066 104.186 140.091 101.183 138.191C97.6755 135.961 92.5066 136.952 90.0924 140.339C90.6392 136.24 89.69 131.965 87.6266 128.393C81.9728 118.646 68.5605 115.951 59.5742 122.683V114.588C59.5742 93.9798 66.7962 61.8691 105.888 61.8691C144.98 61.8691 153.13 98.2027 153.13 114.588H153.12Z"
          fill="#BC99FF" />
        <path
          d="M112.883 239.83C126.409 237.249 127.224 250.083 122.282 255.121C129.844 252.189 130.587 260.397 128.39 262.308C135.942 259.375 146.806 257.796 153.11 264.249V294.697L59.5742 294.666V182.991C67.8692 181.959 75.3182 189.424 75.3698 197.374C75.3904 198.985 75.0912 200.606 74.4516 202.185C81.23 202.474 85.9243 210.569 82.8704 216.62C90.2988 216.94 94.8177 226.594 90.2781 232.499C95.5089 227.265 105.259 220.884 111.913 227.471C114.121 229.65 116.298 235.576 112.821 239.613L112.862 239.82L112.883 239.83Z"
          fill="#F98CF4" />
        <path
          d="M104.609 147.473C104.351 147.99 104.124 148.557 103.938 149.136C104.227 148.609 104.454 148.041 104.609 147.473ZM104.619 147.473C107.456 141.805 114.802 139.637 120.084 143.57L120.177 143.591C119.104 148.805 119.084 154.226 120.301 159.44C114.451 160.09 109.066 163.983 106.579 169.321C104.093 174.659 104.629 181.298 107.91 186.182C104.64 183.26 99.285 183.032 95.7772 185.665C92.2693 188.298 90.9694 193.502 92.8471 197.467C89.4424 193.172 82.7156 192.005 78.0523 194.875C76.9586 195.557 76.2158 196.372 75.4317 197.384H75.3698C75.3079 189.434 67.8692 181.969 59.5742 183.001V122.693C68.5502 115.962 81.9728 118.656 87.6266 128.403C89.69 131.976 90.6392 136.25 90.0924 140.349C92.5066 136.962 97.6652 135.971 101.183 138.201C104.186 140.101 105.548 144.087 104.629 147.473H104.619Z"
          fill="#F9C2F6" />
        <path
          d="M103.639 109.767C106.3 114.454 111.851 117.975 117.01 116.612C111.057 118.822 103.381 118.078 98.4181 114.175C93.3421 110.18 90.6287 103.386 91.5469 96.9947C92.4548 90.6035 96.9634 84.8422 102.947 82.4261C106.641 80.9497 110.995 80.7225 114.503 82.5913L114.523 82.6533C108.993 84.0575 104.939 87.9603 102.7 93.2157C100.461 98.4711 100.812 104.79 103.639 109.767Z"
          fill="#DDFF83" />
      </g>
    </g>
  </g>
  <defs>
    <clipPath id="clip0_309_2471">
      <rect width="214" height="242" fill="white" />
    </clipPath>
  </defs>
</svg>