<?xml version="1.0" encoding="UTF-8"?>
<svg id="Layer_1" data-name="Layer 1" xmlns="http://www.w3.org/2000/svg" version="1.1" viewBox="0 0 1133.9 1133.9">
  <defs>
    <style>
      .cls-1 {
        fill: #ff4dd5;
        stroke-width: 0px;
      }
    </style>
  </defs>
  <path class="cls-1" d="M544.9,527c-126.1,42.8-183.7,242.4-183.7,242.4-77.7-186.9,57.5-253.8,57.5-253.8-87.7-6.7-180.7,37.9-180.7,37.9,65.8-219.2,280.9-104.3,280.9-104.3-28.3-99.2-157.2-158.3-157.2-158.3,209.3-80.5,207.3,134.1,207.3,134.1,226.6-193.1,311.4,51.3,311.4,51.3-142.4-44.4-223,.7-223,.7,235.6,90.5,134.7,243.5,134.7,243.5-96.7-172.7-247.2-193.6-247.2-193.6"/>
  <path class="cls-1" d="M546.9,550.3c137.3,130.2,94.1,345.4,94.1,345.4h-118.2s41.9-162.4,24-345.4"/>
</svg>