<svg width="364" height="364" viewBox="0 0 364 364" fill="none" xmlns="http://www.w3.org/2000/svg">
<g clip-path="url(#clip0_314_2709)">
<path d="M363.906 0.0937805H0.09375V363.906H363.906V0.0937805Z" stroke="white" stroke-width="0.5" stroke-miterlimit="10"/>
<path d="M0.09375 330.834H363.906" stroke="white" stroke-width="0.5" stroke-miterlimit="10"/>
<path d="M0.09375 297.76H363.906" stroke="white" stroke-width="0.5" stroke-miterlimit="10"/>
<path d="M0.09375 264.685H363.906" stroke="white" stroke-width="0.5" stroke-miterlimit="10"/>
<path d="M0.09375 231.611H363.906" stroke="white" stroke-width="0.5" stroke-miterlimit="10"/>
<path d="M0.09375 198.537H363.906" stroke="white" stroke-width="0.5" stroke-miterlimit="10"/>
<path d="M0.09375 165.463H363.906" stroke="white" stroke-width="0.5" stroke-miterlimit="10"/>
<path d="M0.09375 132.389H363.906" stroke="white" stroke-width="0.5" stroke-miterlimit="10"/>
<path d="M0.09375 99.3164H363.906" stroke="white" stroke-width="0.5" stroke-miterlimit="10"/>
<path d="M0.09375 66.2422H363.906" stroke="white" stroke-width="0.5" stroke-miterlimit="10"/>
<path d="M0.09375 33.168H363.906" stroke="white" stroke-width="0.5" stroke-miterlimit="10"/>
<path d="M330.834 0.0937805V363.906" stroke="white" stroke-width="0.5" stroke-miterlimit="10"/>
<path d="M297.76 0.0937805V363.906" stroke="white" stroke-width="0.5" stroke-miterlimit="10"/>
<path d="M264.686 0.0937805V363.906" stroke="white" stroke-width="0.5" stroke-miterlimit="10"/>
<path d="M231.611 0.0937805V363.906" stroke="white" stroke-width="0.5" stroke-miterlimit="10"/>
<path d="M198.537 0.0937805V363.906" stroke="white" stroke-width="0.5" stroke-miterlimit="10"/>
<path d="M165.463 0.0937805V363.906" stroke="white" stroke-width="0.5" stroke-miterlimit="10"/>
<path d="M132.389 0.0937805V363.906" stroke="white" stroke-width="0.5" stroke-miterlimit="10"/>
<path d="M99.3164 0.0937805V363.906" stroke="white" stroke-width="0.5" stroke-miterlimit="10"/>
<path d="M66.2422 0.0937805V363.906" stroke="white" stroke-width="0.5" stroke-miterlimit="10"/>
<path d="M33.168 0.0937805V363.906" stroke="white" stroke-width="0.5" stroke-miterlimit="10"/>
</g>
<defs>
<clipPath id="clip0_314_2709">
<rect width="364" height="364" fill="white"/>
</clipPath>
</defs>
</svg>
