<svg width="41" height="65" viewBox="0 0 41 65" fill="none" xmlns="http://www.w3.org/2000/svg">
<g clip-path="url(#clip0_314_2731)">
<path d="M37.5833 37.6316V34.2105H34.1667V30.7895H30.75V27.3684H27.3333V23.9474H23.9167V20.5263H20.5V17.1053H17.0833V13.6842H13.6667V10.2632H10.25V6.84211H6.83333V3.42105H3.41667V0H0V58.1579H6.83333V54.7368H10.25V51.3158H13.6667V47.8947H17.0833V54.7368H20.5V61.5789H23.9167V65H30.75V61.5789H34.1667V54.7368H30.75V47.8947H27.3333V44.4737H41V37.6316H37.5833Z" fill="white"/>
<path d="M3.41667 0H0V58.1579H3.41667V0Z" fill="black"/>
<path d="M6.83317 3.42105H3.4165V6.8421H6.83317V3.42105Z" fill="black"/>
<path d="M10.2502 6.8421H6.8335V10.2632H10.2502V6.8421Z" fill="black"/>
<path d="M13.6667 10.2632H10.25V13.6842H13.6667V10.2632Z" fill="black"/>
<path d="M17.0832 13.6842H13.6665V17.1053H17.0832V13.6842Z" fill="black"/>
<path d="M20.5002 17.1053H17.0835V20.5263H20.5002V17.1053Z" fill="black"/>
<path d="M23.9167 20.5263H20.5V23.9474H23.9167V20.5263Z" fill="black"/>
<path d="M27.3332 23.9474H23.9165V27.3684H27.3332V23.9474Z" fill="black"/>
<path d="M30.7502 27.3684H27.3335V30.7895H30.7502V27.3684Z" fill="black"/>
<path d="M34.1667 30.7895H30.75V34.2105H34.1667V30.7895Z" fill="black"/>
<path d="M37.5832 34.2105H34.1665V37.6316H37.5832V34.2105Z" fill="black"/>
<path d="M41.0002 37.6316H37.5835V41.0526H41.0002V37.6316Z" fill="black"/>
<path d="M40.9998 41.0526H23.9165V44.4737H40.9998V41.0526Z" fill="black"/>
<path d="M27.3332 44.4737H23.9165V47.8947H27.3332V44.4737Z" fill="black"/>
<path d="M17.0832 44.4737H13.6665V47.8947H17.0832V44.4737Z" fill="black"/>
<path d="M20.5002 47.8947H17.0835V54.7369H20.5002V47.8947Z" fill="black"/>
<path d="M23.9167 54.7368H20.5V61.5789H23.9167V54.7368Z" fill="black"/>
<path d="M30.7498 61.5789H23.9165V65H30.7498V61.5789Z" fill="black"/>
<path d="M30.7502 47.8947H27.3335V54.7369H30.7502V47.8947Z" fill="black"/>
<path d="M34.1667 54.7368H30.75V61.5789H34.1667V54.7368Z" fill="black"/>
<path d="M13.6667 47.8947H10.25V51.3158H13.6667V47.8947Z" fill="black"/>
<path d="M10.2502 51.3158H6.8335V54.7368H10.2502V51.3158Z" fill="black"/>
<path d="M6.83317 54.7368H3.4165V58.1579H6.83317V54.7368Z" fill="black"/>
</g>
<defs>
<clipPath id="clip0_314_2731">
<rect width="41" height="65" fill="white"/>
</clipPath>
</defs>
</svg>
